%TF.GenerationSoftware,KiCad,Pcbnew,(5.1.12)-1*%
%TF.CreationDate,2021-11-30T17:32:02-06:00*%
%TF.ProjectId,Kinetic.Pad,4b696e65-7469-4632-9e50-61642e6b6963,rev?*%
%TF.SameCoordinates,Original*%
%TF.FileFunction,Copper,L1,Top*%
%TF.FilePolarity,Positive*%
%FSLAX46Y46*%
G04 Gerber Fmt 4.6, Leading zero omitted, Abs format (unit mm)*
G04 Created by KiCad (PCBNEW (5.1.12)-1) date 2021-11-30 17:32:02*
%MOMM*%
%LPD*%
G01*
G04 APERTURE LIST*
%TA.AperFunction,ComponentPad*%
%ADD10C,2.250000*%
%TD*%
%TA.AperFunction,ComponentPad*%
%ADD11C,1.752600*%
%TD*%
%TA.AperFunction,ComponentPad*%
%ADD12R,1.752600X1.752600*%
%TD*%
%TA.AperFunction,ComponentPad*%
%ADD13R,2.000000X2.000000*%
%TD*%
%TA.AperFunction,ComponentPad*%
%ADD14C,2.000000*%
%TD*%
%TA.AperFunction,WasherPad*%
%ADD15R,3.200000X2.000000*%
%TD*%
%TA.AperFunction,ComponentPad*%
%ADD16O,1.600000X1.600000*%
%TD*%
%TA.AperFunction,ComponentPad*%
%ADD17R,1.600000X1.600000*%
%TD*%
%TA.AperFunction,ComponentPad*%
%ADD18O,1.700000X1.700000*%
%TD*%
%TA.AperFunction,ComponentPad*%
%ADD19R,1.700000X1.700000*%
%TD*%
%TA.AperFunction,ViaPad*%
%ADD20C,0.800000*%
%TD*%
%TA.AperFunction,Conductor*%
%ADD21C,0.250000*%
%TD*%
G04 APERTURE END LIST*
D10*
%TO.P,MX1,1*%
%TO.N,C1*%
X215940000Y-72200000D03*
%TA.AperFunction,ComponentPad*%
G36*
G01*
X213878688Y-74497350D02*
X213878683Y-74497345D01*
G75*
G02*
X213792655Y-72908683I751317J837345D01*
G01*
X215102657Y-71448683D01*
G75*
G02*
X216691319Y-71362655I837345J-751317D01*
G01*
X216691319Y-71362655D01*
G75*
G02*
X216777347Y-72951317I-751317J-837345D01*
G01*
X215467345Y-74411317D01*
G75*
G02*
X213878683Y-74497345I-837345J751317D01*
G01*
G37*
%TD.AperFunction*%
%TO.P,MX1,2*%
%TO.N,Net-(D3-Pad2)*%
X220980000Y-71120000D03*
%TA.AperFunction,ComponentPad*%
G36*
G01*
X220863483Y-72822395D02*
X220862597Y-72822334D01*
G75*
G02*
X219817666Y-71622597I77403J1122334D01*
G01*
X219857666Y-71042597D01*
G75*
G02*
X221057403Y-69997666I1122334J-77403D01*
G01*
X221057403Y-69997666D01*
G75*
G02*
X222102334Y-71197403I-77403J-1122334D01*
G01*
X222062334Y-71777403D01*
G75*
G02*
X220862597Y-72822334I-1122334J77403D01*
G01*
G37*
%TD.AperFunction*%
%TD*%
D11*
%TO.P,U1,24*%
%TO.N,Net-(U1-Pad24)*%
X226060000Y-22479000D03*
%TO.P,U1,12*%
%TO.N,R3*%
X210820000Y-50419000D03*
%TO.P,U1,23*%
%TO.N,GND*%
X226060000Y-25019000D03*
%TO.P,U1,22*%
%TO.N,Net-(U1-Pad22)*%
X226060000Y-27559000D03*
%TO.P,U1,21*%
%TO.N,+5V*%
X226060000Y-30099000D03*
%TO.P,U1,20*%
%TO.N,A*%
X226060000Y-32639000D03*
%TO.P,U1,19*%
%TO.N,B*%
X226060000Y-35179000D03*
%TO.P,U1,18*%
%TO.N,Net-(U1-Pad18)*%
X226060000Y-37719000D03*
%TO.P,U1,17*%
%TO.N,R1*%
X226060000Y-40259000D03*
%TO.P,U1,16*%
%TO.N,Net-(U1-Pad16)*%
X226060000Y-42799000D03*
%TO.P,U1,15*%
%TO.N,C3*%
X226060000Y-45339000D03*
%TO.P,U1,14*%
%TO.N,C2*%
X226060000Y-47879000D03*
%TO.P,U1,13*%
%TO.N,C1*%
X226060000Y-50419000D03*
%TO.P,U1,11*%
%TO.N,R2*%
X210820000Y-47879000D03*
%TO.P,U1,10*%
%TO.N,Net-(U1-Pad10)*%
X210820000Y-45339000D03*
%TO.P,U1,9*%
%TO.N,Net-(U1-Pad9)*%
X210820000Y-42799000D03*
%TO.P,U1,8*%
%TO.N,Net-(U1-Pad8)*%
X210820000Y-40259000D03*
%TO.P,U1,7*%
%TO.N,DIN*%
X210820000Y-37719000D03*
%TO.P,U1,6*%
%TO.N,SCL*%
X210820000Y-35179000D03*
%TO.P,U1,5*%
%TO.N,SDA*%
X210820000Y-32639000D03*
%TO.P,U1,4*%
%TO.N,GND*%
X210820000Y-30099000D03*
%TO.P,U1,3*%
X210820000Y-27559000D03*
%TO.P,U1,2*%
%TO.N,Net-(U1-Pad2)*%
X210820000Y-25019000D03*
D12*
%TO.P,U1,1*%
%TO.N,Net-(U1-Pad1)*%
X210820000Y-22479000D03*
%TD*%
D13*
%TO.P,SW1,A*%
%TO.N,A*%
X239184800Y-30647000D03*
D14*
%TO.P,SW1,C*%
%TO.N,GND*%
X239184800Y-33147000D03*
%TO.P,SW1,B*%
%TO.N,B*%
X239184800Y-35647000D03*
D15*
%TO.P,SW1,*%
%TO.N,*%
X246684800Y-27547000D03*
X246684800Y-38747000D03*
D14*
%TO.P,SW1,S2*%
%TO.N,Net-(D7-Pad2)*%
X253684800Y-30647000D03*
%TO.P,SW1,S1*%
%TO.N,C3*%
X253684800Y-35647000D03*
%TD*%
D10*
%TO.P,MX5,1*%
%TO.N,C3*%
X254040000Y-72200000D03*
%TA.AperFunction,ComponentPad*%
G36*
G01*
X251978688Y-74497350D02*
X251978683Y-74497345D01*
G75*
G02*
X251892655Y-72908683I751317J837345D01*
G01*
X253202657Y-71448683D01*
G75*
G02*
X254791319Y-71362655I837345J-751317D01*
G01*
X254791319Y-71362655D01*
G75*
G02*
X254877347Y-72951317I-751317J-837345D01*
G01*
X253567345Y-74411317D01*
G75*
G02*
X251978683Y-74497345I-837345J751317D01*
G01*
G37*
%TD.AperFunction*%
%TO.P,MX5,2*%
%TO.N,Net-(D9-Pad2)*%
X259080000Y-71120000D03*
%TA.AperFunction,ComponentPad*%
G36*
G01*
X258963483Y-72822395D02*
X258962597Y-72822334D01*
G75*
G02*
X257917666Y-71622597I77403J1122334D01*
G01*
X257957666Y-71042597D01*
G75*
G02*
X259157403Y-69997666I1122334J-77403D01*
G01*
X259157403Y-69997666D01*
G75*
G02*
X260202334Y-71197403I-77403J-1122334D01*
G01*
X260162334Y-71777403D01*
G75*
G02*
X258962597Y-72822334I-1122334J77403D01*
G01*
G37*
%TD.AperFunction*%
%TD*%
%TO.P,MX4,1*%
%TO.N,C3*%
X254040000Y-53150000D03*
%TA.AperFunction,ComponentPad*%
G36*
G01*
X251978688Y-55447350D02*
X251978683Y-55447345D01*
G75*
G02*
X251892655Y-53858683I751317J837345D01*
G01*
X253202657Y-52398683D01*
G75*
G02*
X254791319Y-52312655I837345J-751317D01*
G01*
X254791319Y-52312655D01*
G75*
G02*
X254877347Y-53901317I-751317J-837345D01*
G01*
X253567345Y-55361317D01*
G75*
G02*
X251978683Y-55447345I-837345J751317D01*
G01*
G37*
%TD.AperFunction*%
%TO.P,MX4,2*%
%TO.N,Net-(D8-Pad2)*%
X259080000Y-52070000D03*
%TA.AperFunction,ComponentPad*%
G36*
G01*
X258963483Y-53772395D02*
X258962597Y-53772334D01*
G75*
G02*
X257917666Y-52572597I77403J1122334D01*
G01*
X257957666Y-51992597D01*
G75*
G02*
X259157403Y-50947666I1122334J-77403D01*
G01*
X259157403Y-50947666D01*
G75*
G02*
X260202334Y-52147403I-77403J-1122334D01*
G01*
X260162334Y-52727403D01*
G75*
G02*
X258962597Y-53772334I-1122334J77403D01*
G01*
G37*
%TD.AperFunction*%
%TD*%
%TO.P,MX3,1*%
%TO.N,C2*%
X234990000Y-72200000D03*
%TA.AperFunction,ComponentPad*%
G36*
G01*
X232928688Y-74497350D02*
X232928683Y-74497345D01*
G75*
G02*
X232842655Y-72908683I751317J837345D01*
G01*
X234152657Y-71448683D01*
G75*
G02*
X235741319Y-71362655I837345J-751317D01*
G01*
X235741319Y-71362655D01*
G75*
G02*
X235827347Y-72951317I-751317J-837345D01*
G01*
X234517345Y-74411317D01*
G75*
G02*
X232928683Y-74497345I-837345J751317D01*
G01*
G37*
%TD.AperFunction*%
%TO.P,MX3,2*%
%TO.N,Net-(D6-Pad2)*%
X240030000Y-71120000D03*
%TA.AperFunction,ComponentPad*%
G36*
G01*
X239913483Y-72822395D02*
X239912597Y-72822334D01*
G75*
G02*
X238867666Y-71622597I77403J1122334D01*
G01*
X238907666Y-71042597D01*
G75*
G02*
X240107403Y-69997666I1122334J-77403D01*
G01*
X240107403Y-69997666D01*
G75*
G02*
X241152334Y-71197403I-77403J-1122334D01*
G01*
X241112334Y-71777403D01*
G75*
G02*
X239912597Y-72822334I-1122334J77403D01*
G01*
G37*
%TD.AperFunction*%
%TD*%
%TO.P,MX2,1*%
%TO.N,C2*%
X234990000Y-53150000D03*
%TA.AperFunction,ComponentPad*%
G36*
G01*
X232928688Y-55447350D02*
X232928683Y-55447345D01*
G75*
G02*
X232842655Y-53858683I751317J837345D01*
G01*
X234152657Y-52398683D01*
G75*
G02*
X235741319Y-52312655I837345J-751317D01*
G01*
X235741319Y-52312655D01*
G75*
G02*
X235827347Y-53901317I-751317J-837345D01*
G01*
X234517345Y-55361317D01*
G75*
G02*
X232928683Y-55447345I-837345J751317D01*
G01*
G37*
%TD.AperFunction*%
%TO.P,MX2,2*%
%TO.N,Net-(D5-Pad2)*%
X240030000Y-52070000D03*
%TA.AperFunction,ComponentPad*%
G36*
G01*
X239913483Y-53772395D02*
X239912597Y-53772334D01*
G75*
G02*
X238867666Y-52572597I77403J1122334D01*
G01*
X238907666Y-51992597D01*
G75*
G02*
X240107403Y-50947666I1122334J-77403D01*
G01*
X240107403Y-50947666D01*
G75*
G02*
X241152334Y-52147403I-77403J-1122334D01*
G01*
X241112334Y-52727403D01*
G75*
G02*
X239912597Y-53772334I-1122334J77403D01*
G01*
G37*
%TD.AperFunction*%
%TD*%
D16*
%TO.P,,2*%
%TO.N,Net-(D9-Pad2)*%
X264287000Y-67691000D03*
D17*
%TO.P,,1*%
%TO.N,R3*%
X264287000Y-75311000D03*
%TD*%
D16*
%TO.P,,2*%
%TO.N,Net-(D8-Pad2)*%
X264287000Y-53721000D03*
D17*
%TO.P,,1*%
%TO.N,R2*%
X264287000Y-61341000D03*
%TD*%
D16*
%TO.P,,2*%
%TO.N,Net-(D7-Pad2)*%
X257556000Y-30657800D03*
D17*
%TO.P,,1*%
%TO.N,R1*%
X257556000Y-38277800D03*
%TD*%
D16*
%TO.P,,2*%
%TO.N,Net-(D6-Pad2)*%
X245745000Y-72517000D03*
D17*
%TO.P,,1*%
%TO.N,R3*%
X245745000Y-80137000D03*
%TD*%
D16*
%TO.P,,2*%
%TO.N,Net-(D5-Pad2)*%
X245745000Y-53721000D03*
D17*
%TO.P,,1*%
%TO.N,R2*%
X245745000Y-61341000D03*
%TD*%
D16*
%TO.P,,2*%
%TO.N,Net-(D3-Pad2)*%
X226695000Y-72771000D03*
D17*
%TO.P,,1*%
%TO.N,R3*%
X226695000Y-80391000D03*
%TD*%
D18*
%TO.P,,4*%
%TO.N,SDA*%
X214853000Y-55677000D03*
%TO.P,,3*%
%TO.N,SCL*%
X217393000Y-55677000D03*
%TO.P,,2*%
%TO.N,+5V*%
X219933000Y-55677000D03*
D19*
%TO.P,,1*%
%TO.N,GND*%
X222473000Y-55677000D03*
%TD*%
D20*
%TO.N,SCL*%
X212746301Y-35179000D03*
%TO.N,+5V*%
X261488347Y-74680653D03*
X263735250Y-27896395D03*
%TO.N,GND*%
X263506240Y-77550041D03*
X219079653Y-84332653D03*
X217678000Y-80391000D03*
X264994000Y-26743000D03*
%TO.N,Net-(D2-Pad2)*%
X264287000Y-76835000D03*
X264716517Y-27703733D03*
%TO.N,R3*%
X253619000Y-79502000D03*
X253619000Y-75311000D03*
%TO.N,C3*%
X253684800Y-45404800D03*
%TD*%
D21*
%TO.N,SDA*%
X214853000Y-55677000D02*
X212649000Y-55677000D01*
X212649000Y-55677000D02*
X212021301Y-55049301D01*
X212021301Y-55049301D02*
X212021301Y-32834699D01*
X211825602Y-32639000D02*
X210820000Y-32639000D01*
X212021301Y-32834699D02*
X211825602Y-32639000D01*
%TO.N,SCL*%
X217393000Y-55677000D02*
X217393000Y-54579000D01*
X214288999Y-54501999D02*
X213564008Y-55226990D01*
X217315999Y-54501999D02*
X214288999Y-54501999D01*
X217393000Y-54579000D02*
X217315999Y-54501999D01*
X213564008Y-55226990D02*
X212979000Y-55226990D01*
X212960990Y-55226990D02*
X212471311Y-54737311D01*
X212979000Y-55226990D02*
X212960990Y-55226990D01*
X212471311Y-35453990D02*
X212746301Y-35179000D01*
X212471311Y-54737311D02*
X212471311Y-35453990D01*
%TO.N,+5V*%
X219933000Y-55677000D02*
X219933000Y-56611000D01*
X220174001Y-56852001D02*
X224452999Y-56852001D01*
X219933000Y-56611000D02*
X220174001Y-56852001D01*
X224452999Y-56852001D02*
X224858699Y-56446301D01*
X224858699Y-56446301D02*
X224858699Y-30411301D01*
X225171000Y-30099000D02*
X226060000Y-30099000D01*
X224858699Y-30411301D02*
X225171000Y-30099000D01*
X263640980Y-27990665D02*
X263735250Y-27896395D01*
X263640980Y-50811020D02*
X263640980Y-27990665D01*
X262330989Y-73838011D02*
X262711989Y-73838011D01*
X262711989Y-73838011D02*
X262711989Y-58609991D01*
X262711989Y-58609991D02*
X262451999Y-58350001D01*
X262451999Y-58350001D02*
X261043999Y-58350001D01*
X261488347Y-74680653D02*
X262330989Y-73838011D01*
X261043999Y-58350001D02*
X260419999Y-57726001D01*
X262711989Y-51096445D02*
X263355555Y-51096445D01*
X260419999Y-57726001D02*
X260419999Y-56573999D01*
X261043999Y-55949999D02*
X262185001Y-55949999D01*
X262185001Y-55949999D02*
X262711989Y-55423011D01*
X260419999Y-56573999D02*
X261043999Y-55949999D01*
X263355555Y-51096445D02*
X263640980Y-50811020D01*
X262711989Y-55423011D02*
X262711989Y-51096445D01*
%TO.N,GND*%
X239184800Y-33147000D02*
X238252000Y-33147000D01*
X238252000Y-33147000D02*
X237859799Y-32754799D01*
X222473000Y-55722000D02*
X223152991Y-56401991D01*
X222473000Y-55677000D02*
X222473000Y-55722000D01*
X225171000Y-25019000D02*
X226060000Y-25019000D01*
X224858699Y-25331301D02*
X225171000Y-25019000D01*
X224858699Y-29774891D02*
X224858699Y-25331301D01*
X224408690Y-30224900D02*
X224858699Y-29774891D01*
X224408689Y-56134311D02*
X224408690Y-30224900D01*
X224155000Y-56388000D02*
X224408689Y-56134311D01*
X222758000Y-56388000D02*
X224155000Y-56388000D01*
X222473000Y-56103000D02*
X222758000Y-56388000D01*
X222473000Y-55677000D02*
X222473000Y-56103000D01*
X219079653Y-84332653D02*
X219079653Y-80649653D01*
X218821000Y-80391000D02*
X217678000Y-80391000D01*
X219079653Y-80649653D02*
X218821000Y-80391000D01*
X265441518Y-28563482D02*
X265441518Y-27190518D01*
X264541000Y-29464000D02*
X265441518Y-28563482D01*
X265441518Y-27190518D02*
X264994000Y-26743000D01*
X265412001Y-50147001D02*
X264541000Y-49276000D01*
X265412001Y-77106999D02*
X265412001Y-50147001D01*
X264958999Y-77560001D02*
X265412001Y-77106999D01*
X263516200Y-77560001D02*
X264958999Y-77560001D01*
X264541000Y-49276000D02*
X264541000Y-29464000D01*
X263506240Y-77550041D02*
X263516200Y-77560001D01*
X237859799Y-32754799D02*
X237859799Y-26849299D01*
X237859799Y-26849299D02*
X237299500Y-26289000D01*
X237299500Y-26289000D02*
X236474000Y-26289000D01*
X235204000Y-25019000D02*
X226060000Y-25019000D01*
X236474000Y-26289000D02*
X235204000Y-25019000D01*
%TO.N,Net-(D2-Pad2)*%
X263161999Y-52052001D02*
X263161999Y-71137999D01*
X263625998Y-76835000D02*
X264287000Y-76835000D01*
X263161999Y-76371001D02*
X263625998Y-76835000D01*
X263161999Y-71137999D02*
X263161999Y-76371001D01*
X263161999Y-52052001D02*
X263634001Y-52052001D01*
X263634001Y-52052001D02*
X264090990Y-51595012D01*
X264090990Y-51595012D02*
X264090990Y-49462400D01*
X264090990Y-49462400D02*
X264090990Y-48641000D01*
X264716517Y-28652073D02*
X264090990Y-29277600D01*
X264716517Y-27703733D02*
X264716517Y-28652073D01*
X264090990Y-29277600D02*
X264090990Y-49462400D01*
%TO.N,R3*%
X210820000Y-50546000D02*
X211571291Y-51297291D01*
X210820000Y-50419000D02*
X210820000Y-50546000D01*
X211571291Y-51297291D02*
X211571291Y-54864000D01*
X211571291Y-64653709D02*
X211571291Y-79237291D01*
X211571291Y-54864000D02*
X211571291Y-64653709D01*
X211571291Y-64653709D02*
X211571291Y-64886291D01*
X211999999Y-79665999D02*
X219419001Y-79665999D01*
X211571291Y-79237291D02*
X211999999Y-79665999D01*
X220144002Y-80391000D02*
X226695000Y-80391000D01*
X219419001Y-79665999D02*
X220144002Y-80391000D01*
X253619000Y-75311000D02*
X253619000Y-79502000D01*
%TO.N,C1*%
X214630000Y-73660000D02*
X214630000Y-73533000D01*
X218493001Y-69669999D02*
X225097001Y-69669999D01*
X214630000Y-73533000D02*
X218493001Y-69669999D01*
X226060000Y-68707000D02*
X226060000Y-50419000D01*
X225097001Y-69669999D02*
X226060000Y-68707000D01*
%TO.N,C2*%
X234551001Y-72788999D02*
X233680000Y-73660000D01*
X234551001Y-55481001D02*
X234551001Y-72788999D01*
X233680000Y-54610000D02*
X234551001Y-55481001D01*
X227076000Y-47879000D02*
X226060000Y-47879000D01*
X227261301Y-51191709D02*
X227261301Y-48064301D01*
X226510010Y-51943000D02*
X227261301Y-51191709D01*
X227261301Y-48064301D02*
X227076000Y-47879000D01*
X226510010Y-68649010D02*
X226510010Y-51943000D01*
X231521000Y-73660000D02*
X226510010Y-68649010D01*
X233680000Y-73660000D02*
X231521000Y-73660000D01*
%TO.N,C3*%
X253601001Y-72788999D02*
X252730000Y-73660000D01*
X253601001Y-55481001D02*
X253601001Y-72788999D01*
X252730000Y-54610000D02*
X253601001Y-55481001D01*
X253684800Y-53655200D02*
X252730000Y-54610000D01*
X253684800Y-45404800D02*
X253684800Y-53655200D01*
X253684800Y-35647000D02*
X253684800Y-45404800D01*
%TD*%
M02*
