%TF.GenerationSoftware,KiCad,Pcbnew,(5.1.12)-1*%
%TF.CreationDate,2021-11-30T17:32:03-06:00*%
%TF.ProjectId,Kinetic.Pad,4b696e65-7469-4632-9e50-61642e6b6963,rev?*%
%TF.SameCoordinates,Original*%
%TF.FileFunction,Soldermask,Top*%
%TF.FilePolarity,Negative*%
%FSLAX46Y46*%
G04 Gerber Fmt 4.6, Leading zero omitted, Abs format (unit mm)*
G04 Created by KiCad (PCBNEW (5.1.12)-1) date 2021-11-30 17:32:03*
%MOMM*%
%LPD*%
G01*
G04 APERTURE LIST*
%ADD10C,2.000000*%
%ADD11C,1.750000*%
%ADD12C,3.987800*%
%ADD13C,1.752600*%
%ADD14R,1.752600X1.752600*%
%ADD15R,2.000000X2.000000*%
%ADD16R,3.200000X2.000000*%
%ADD17O,1.600000X1.600000*%
%ADD18R,1.600000X1.600000*%
%ADD19O,1.700000X1.700000*%
%ADD20R,1.700000X1.700000*%
G04 APERTURE END LIST*
D10*
%TO.C,*%
X258000500Y-65087500D03*
%TD*%
%TO.C,*%
X216979500Y-65087500D03*
%TD*%
%TO.C,*%
X237490000Y-23749000D03*
%TD*%
D11*
%TO.C,MX1*%
X223520000Y-76200000D03*
X213360000Y-76200000D03*
D12*
X218440000Y-76200000D03*
%TD*%
D13*
%TO.C,U1*%
X226060000Y-22479000D03*
X210820000Y-50419000D03*
X226060000Y-25019000D03*
X226060000Y-27559000D03*
X226060000Y-30099000D03*
X226060000Y-32639000D03*
X226060000Y-35179000D03*
X226060000Y-37719000D03*
X226060000Y-40259000D03*
X226060000Y-42799000D03*
X226060000Y-45339000D03*
X226060000Y-47879000D03*
X226060000Y-50419000D03*
X210820000Y-47879000D03*
X210820000Y-45339000D03*
X210820000Y-42799000D03*
X210820000Y-40259000D03*
X210820000Y-37719000D03*
X210820000Y-35179000D03*
X210820000Y-32639000D03*
X210820000Y-30099000D03*
X210820000Y-27559000D03*
X210820000Y-25019000D03*
D14*
X210820000Y-22479000D03*
%TD*%
D15*
%TO.C,SW1*%
X239184800Y-30647000D03*
D10*
X239184800Y-33147000D03*
X239184800Y-35647000D03*
D16*
X246684800Y-27547000D03*
X246684800Y-38747000D03*
D10*
X253684800Y-30647000D03*
X253684800Y-35647000D03*
%TD*%
D11*
%TO.C,MX5*%
X261620000Y-76200000D03*
X251460000Y-76200000D03*
D12*
X256540000Y-76200000D03*
%TD*%
D11*
%TO.C,MX4*%
X261620000Y-57150000D03*
X251460000Y-57150000D03*
D12*
X256540000Y-57150000D03*
%TD*%
D11*
%TO.C,MX3*%
X242570000Y-76200000D03*
X232410000Y-76200000D03*
D12*
X237490000Y-76200000D03*
%TD*%
D11*
%TO.C,MX2*%
X242570000Y-57150000D03*
X232410000Y-57150000D03*
D12*
X237490000Y-57150000D03*
%TD*%
D17*
%TO.C,*%
X264287000Y-67691000D03*
D18*
X264287000Y-75311000D03*
%TD*%
D17*
%TO.C,*%
X264287000Y-53721000D03*
D18*
X264287000Y-61341000D03*
%TD*%
D17*
%TO.C,*%
X257556000Y-30657800D03*
D18*
X257556000Y-38277800D03*
%TD*%
D17*
%TO.C,*%
X245745000Y-72517000D03*
D18*
X245745000Y-80137000D03*
%TD*%
D17*
%TO.C,*%
X245745000Y-53721000D03*
D18*
X245745000Y-61341000D03*
%TD*%
D17*
%TO.C,*%
X226695000Y-72771000D03*
D18*
X226695000Y-80391000D03*
%TD*%
D19*
%TO.C,*%
X214853000Y-55677000D03*
X217393000Y-55677000D03*
X219933000Y-55677000D03*
D20*
X222473000Y-55677000D03*
%TD*%
M02*
