%TF.GenerationSoftware,KiCad,Pcbnew,(5.1.12)-1*%
%TF.CreationDate,2021-11-30T17:32:03-06:00*%
%TF.ProjectId,Kinetic.Pad,4b696e65-7469-4632-9e50-61642e6b6963,rev?*%
%TF.SameCoordinates,Original*%
%TF.FileFunction,Copper,L2,Bot*%
%TF.FilePolarity,Positive*%
%FSLAX46Y46*%
G04 Gerber Fmt 4.6, Leading zero omitted, Abs format (unit mm)*
G04 Created by KiCad (PCBNEW (5.1.12)-1) date 2021-11-30 17:32:03*
%MOMM*%
%LPD*%
G01*
G04 APERTURE LIST*
%TA.AperFunction,ComponentPad*%
%ADD10C,2.250000*%
%TD*%
%TA.AperFunction,ComponentPad*%
%ADD11C,1.752600*%
%TD*%
%TA.AperFunction,ComponentPad*%
%ADD12R,1.752600X1.752600*%
%TD*%
%TA.AperFunction,ComponentPad*%
%ADD13R,2.000000X2.000000*%
%TD*%
%TA.AperFunction,ComponentPad*%
%ADD14C,2.000000*%
%TD*%
%TA.AperFunction,WasherPad*%
%ADD15R,3.200000X2.000000*%
%TD*%
%TA.AperFunction,SMDPad,CuDef*%
%ADD16R,1.500000X1.000000*%
%TD*%
%TA.AperFunction,ComponentPad*%
%ADD17O,1.600000X1.600000*%
%TD*%
%TA.AperFunction,ComponentPad*%
%ADD18R,1.600000X1.600000*%
%TD*%
%TA.AperFunction,ComponentPad*%
%ADD19O,1.700000X1.700000*%
%TD*%
%TA.AperFunction,ComponentPad*%
%ADD20R,1.700000X1.700000*%
%TD*%
%TA.AperFunction,ViaPad*%
%ADD21C,0.800000*%
%TD*%
%TA.AperFunction,Conductor*%
%ADD22C,0.250000*%
%TD*%
G04 APERTURE END LIST*
D10*
%TO.P,MX1,1*%
%TO.N,C1*%
X215940000Y-72200000D03*
%TA.AperFunction,ComponentPad*%
G36*
G01*
X213878688Y-74497350D02*
X213878683Y-74497345D01*
G75*
G02*
X213792655Y-72908683I751317J837345D01*
G01*
X215102657Y-71448683D01*
G75*
G02*
X216691319Y-71362655I837345J-751317D01*
G01*
X216691319Y-71362655D01*
G75*
G02*
X216777347Y-72951317I-751317J-837345D01*
G01*
X215467345Y-74411317D01*
G75*
G02*
X213878683Y-74497345I-837345J751317D01*
G01*
G37*
%TD.AperFunction*%
%TO.P,MX1,2*%
%TO.N,Net-(D3-Pad2)*%
X220980000Y-71120000D03*
%TA.AperFunction,ComponentPad*%
G36*
G01*
X220863483Y-72822395D02*
X220862597Y-72822334D01*
G75*
G02*
X219817666Y-71622597I77403J1122334D01*
G01*
X219857666Y-71042597D01*
G75*
G02*
X221057403Y-69997666I1122334J-77403D01*
G01*
X221057403Y-69997666D01*
G75*
G02*
X222102334Y-71197403I-77403J-1122334D01*
G01*
X222062334Y-71777403D01*
G75*
G02*
X220862597Y-72822334I-1122334J77403D01*
G01*
G37*
%TD.AperFunction*%
%TD*%
D11*
%TO.P,U1,24*%
%TO.N,Net-(U1-Pad24)*%
X226060000Y-22479000D03*
%TO.P,U1,12*%
%TO.N,R3*%
X210820000Y-50419000D03*
%TO.P,U1,23*%
%TO.N,GND*%
X226060000Y-25019000D03*
%TO.P,U1,22*%
%TO.N,Net-(U1-Pad22)*%
X226060000Y-27559000D03*
%TO.P,U1,21*%
%TO.N,+5V*%
X226060000Y-30099000D03*
%TO.P,U1,20*%
%TO.N,A*%
X226060000Y-32639000D03*
%TO.P,U1,19*%
%TO.N,B*%
X226060000Y-35179000D03*
%TO.P,U1,18*%
%TO.N,Net-(U1-Pad18)*%
X226060000Y-37719000D03*
%TO.P,U1,17*%
%TO.N,R1*%
X226060000Y-40259000D03*
%TO.P,U1,16*%
%TO.N,Net-(U1-Pad16)*%
X226060000Y-42799000D03*
%TO.P,U1,15*%
%TO.N,C3*%
X226060000Y-45339000D03*
%TO.P,U1,14*%
%TO.N,C2*%
X226060000Y-47879000D03*
%TO.P,U1,13*%
%TO.N,C1*%
X226060000Y-50419000D03*
%TO.P,U1,11*%
%TO.N,R2*%
X210820000Y-47879000D03*
%TO.P,U1,10*%
%TO.N,Net-(U1-Pad10)*%
X210820000Y-45339000D03*
%TO.P,U1,9*%
%TO.N,Net-(U1-Pad9)*%
X210820000Y-42799000D03*
%TO.P,U1,8*%
%TO.N,Net-(U1-Pad8)*%
X210820000Y-40259000D03*
%TO.P,U1,7*%
%TO.N,DIN*%
X210820000Y-37719000D03*
%TO.P,U1,6*%
%TO.N,SCL*%
X210820000Y-35179000D03*
%TO.P,U1,5*%
%TO.N,SDA*%
X210820000Y-32639000D03*
%TO.P,U1,4*%
%TO.N,GND*%
X210820000Y-30099000D03*
%TO.P,U1,3*%
X210820000Y-27559000D03*
%TO.P,U1,2*%
%TO.N,Net-(U1-Pad2)*%
X210820000Y-25019000D03*
D12*
%TO.P,U1,1*%
%TO.N,Net-(U1-Pad1)*%
X210820000Y-22479000D03*
%TD*%
D13*
%TO.P,SW1,A*%
%TO.N,A*%
X239184800Y-30647000D03*
D14*
%TO.P,SW1,C*%
%TO.N,GND*%
X239184800Y-33147000D03*
%TO.P,SW1,B*%
%TO.N,B*%
X239184800Y-35647000D03*
D15*
%TO.P,SW1,*%
%TO.N,*%
X246684800Y-27547000D03*
X246684800Y-38747000D03*
D14*
%TO.P,SW1,S2*%
%TO.N,Net-(D7-Pad2)*%
X253684800Y-30647000D03*
%TO.P,SW1,S1*%
%TO.N,C3*%
X253684800Y-35647000D03*
%TD*%
D10*
%TO.P,MX5,1*%
%TO.N,C3*%
X254040000Y-72200000D03*
%TA.AperFunction,ComponentPad*%
G36*
G01*
X251978688Y-74497350D02*
X251978683Y-74497345D01*
G75*
G02*
X251892655Y-72908683I751317J837345D01*
G01*
X253202657Y-71448683D01*
G75*
G02*
X254791319Y-71362655I837345J-751317D01*
G01*
X254791319Y-71362655D01*
G75*
G02*
X254877347Y-72951317I-751317J-837345D01*
G01*
X253567345Y-74411317D01*
G75*
G02*
X251978683Y-74497345I-837345J751317D01*
G01*
G37*
%TD.AperFunction*%
%TO.P,MX5,2*%
%TO.N,Net-(D9-Pad2)*%
X259080000Y-71120000D03*
%TA.AperFunction,ComponentPad*%
G36*
G01*
X258963483Y-72822395D02*
X258962597Y-72822334D01*
G75*
G02*
X257917666Y-71622597I77403J1122334D01*
G01*
X257957666Y-71042597D01*
G75*
G02*
X259157403Y-69997666I1122334J-77403D01*
G01*
X259157403Y-69997666D01*
G75*
G02*
X260202334Y-71197403I-77403J-1122334D01*
G01*
X260162334Y-71777403D01*
G75*
G02*
X258962597Y-72822334I-1122334J77403D01*
G01*
G37*
%TD.AperFunction*%
%TD*%
%TO.P,MX4,1*%
%TO.N,C3*%
X254040000Y-53150000D03*
%TA.AperFunction,ComponentPad*%
G36*
G01*
X251978688Y-55447350D02*
X251978683Y-55447345D01*
G75*
G02*
X251892655Y-53858683I751317J837345D01*
G01*
X253202657Y-52398683D01*
G75*
G02*
X254791319Y-52312655I837345J-751317D01*
G01*
X254791319Y-52312655D01*
G75*
G02*
X254877347Y-53901317I-751317J-837345D01*
G01*
X253567345Y-55361317D01*
G75*
G02*
X251978683Y-55447345I-837345J751317D01*
G01*
G37*
%TD.AperFunction*%
%TO.P,MX4,2*%
%TO.N,Net-(D8-Pad2)*%
X259080000Y-52070000D03*
%TA.AperFunction,ComponentPad*%
G36*
G01*
X258963483Y-53772395D02*
X258962597Y-53772334D01*
G75*
G02*
X257917666Y-52572597I77403J1122334D01*
G01*
X257957666Y-51992597D01*
G75*
G02*
X259157403Y-50947666I1122334J-77403D01*
G01*
X259157403Y-50947666D01*
G75*
G02*
X260202334Y-52147403I-77403J-1122334D01*
G01*
X260162334Y-52727403D01*
G75*
G02*
X258962597Y-53772334I-1122334J77403D01*
G01*
G37*
%TD.AperFunction*%
%TD*%
%TO.P,MX3,1*%
%TO.N,C2*%
X234990000Y-72200000D03*
%TA.AperFunction,ComponentPad*%
G36*
G01*
X232928688Y-74497350D02*
X232928683Y-74497345D01*
G75*
G02*
X232842655Y-72908683I751317J837345D01*
G01*
X234152657Y-71448683D01*
G75*
G02*
X235741319Y-71362655I837345J-751317D01*
G01*
X235741319Y-71362655D01*
G75*
G02*
X235827347Y-72951317I-751317J-837345D01*
G01*
X234517345Y-74411317D01*
G75*
G02*
X232928683Y-74497345I-837345J751317D01*
G01*
G37*
%TD.AperFunction*%
%TO.P,MX3,2*%
%TO.N,Net-(D6-Pad2)*%
X240030000Y-71120000D03*
%TA.AperFunction,ComponentPad*%
G36*
G01*
X239913483Y-72822395D02*
X239912597Y-72822334D01*
G75*
G02*
X238867666Y-71622597I77403J1122334D01*
G01*
X238907666Y-71042597D01*
G75*
G02*
X240107403Y-69997666I1122334J-77403D01*
G01*
X240107403Y-69997666D01*
G75*
G02*
X241152334Y-71197403I-77403J-1122334D01*
G01*
X241112334Y-71777403D01*
G75*
G02*
X239912597Y-72822334I-1122334J77403D01*
G01*
G37*
%TD.AperFunction*%
%TD*%
%TO.P,MX2,1*%
%TO.N,C2*%
X234990000Y-53150000D03*
%TA.AperFunction,ComponentPad*%
G36*
G01*
X232928688Y-55447350D02*
X232928683Y-55447345D01*
G75*
G02*
X232842655Y-53858683I751317J837345D01*
G01*
X234152657Y-52398683D01*
G75*
G02*
X235741319Y-52312655I837345J-751317D01*
G01*
X235741319Y-52312655D01*
G75*
G02*
X235827347Y-53901317I-751317J-837345D01*
G01*
X234517345Y-55361317D01*
G75*
G02*
X232928683Y-55447345I-837345J751317D01*
G01*
G37*
%TD.AperFunction*%
%TO.P,MX2,2*%
%TO.N,Net-(D5-Pad2)*%
X240030000Y-52070000D03*
%TA.AperFunction,ComponentPad*%
G36*
G01*
X239913483Y-53772395D02*
X239912597Y-53772334D01*
G75*
G02*
X238867666Y-52572597I77403J1122334D01*
G01*
X238907666Y-51992597D01*
G75*
G02*
X240107403Y-50947666I1122334J-77403D01*
G01*
X240107403Y-50947666D01*
G75*
G02*
X241152334Y-52147403I-77403J-1122334D01*
G01*
X241112334Y-52727403D01*
G75*
G02*
X239912597Y-53772334I-1122334J77403D01*
G01*
G37*
%TD.AperFunction*%
%TD*%
D16*
%TO.P,,1*%
%TO.N,+5V*%
X211164000Y-83566000D03*
%TO.P,,2*%
%TO.N,Net-(D10-Pad2)*%
X211164000Y-80366000D03*
%TO.P,,4*%
%TO.N,Net-(D10-Pad4)*%
X216064000Y-83566000D03*
%TO.P,,3*%
%TO.N,GND*%
X216064000Y-80366000D03*
%TD*%
D17*
%TO.P,,2*%
%TO.N,Net-(D9-Pad2)*%
X264287000Y-67691000D03*
D18*
%TO.P,,1*%
%TO.N,R3*%
X264287000Y-75311000D03*
%TD*%
D17*
%TO.P,,2*%
%TO.N,Net-(D8-Pad2)*%
X264287000Y-53721000D03*
D18*
%TO.P,,1*%
%TO.N,R2*%
X264287000Y-61341000D03*
%TD*%
D17*
%TO.P,,2*%
%TO.N,Net-(D7-Pad2)*%
X257556000Y-30657800D03*
D18*
%TO.P,,1*%
%TO.N,R1*%
X257556000Y-38277800D03*
%TD*%
D17*
%TO.P,,2*%
%TO.N,Net-(D6-Pad2)*%
X245745000Y-72517000D03*
D18*
%TO.P,,1*%
%TO.N,R3*%
X245745000Y-80137000D03*
%TD*%
D17*
%TO.P,,2*%
%TO.N,Net-(D5-Pad2)*%
X245745000Y-53721000D03*
D18*
%TO.P,,1*%
%TO.N,R2*%
X245745000Y-61341000D03*
%TD*%
D16*
%TO.P,,1*%
%TO.N,+5V*%
X258117000Y-83566000D03*
%TO.P,,2*%
%TO.N,Net-(D10-Pad4)*%
X258117000Y-80366000D03*
%TO.P,,4*%
%TO.N,Net-(D2-Pad2)*%
X263017000Y-83566000D03*
%TO.P,,3*%
%TO.N,GND*%
X263017000Y-80366000D03*
%TD*%
D17*
%TO.P,,2*%
%TO.N,Net-(D3-Pad2)*%
X226695000Y-72771000D03*
D18*
%TO.P,,1*%
%TO.N,R3*%
X226695000Y-80391000D03*
%TD*%
D16*
%TO.P,,1*%
%TO.N,+5V*%
X258117000Y-25146000D03*
%TO.P,,2*%
%TO.N,Net-(D2-Pad2)*%
X258117000Y-21946000D03*
%TO.P,,4*%
%TO.N,Net-(D1-Pad2)*%
X263017000Y-25146000D03*
%TO.P,,3*%
%TO.N,GND*%
X263017000Y-21946000D03*
%TD*%
%TO.P,,1*%
%TO.N,+5V*%
X215826000Y-25146000D03*
%TO.P,,2*%
%TO.N,Net-(D1-Pad2)*%
X215826000Y-21946000D03*
%TO.P,,4*%
%TO.N,DIN*%
X220726000Y-25146000D03*
%TO.P,,3*%
%TO.N,GND*%
X220726000Y-21946000D03*
%TD*%
D19*
%TO.P,,4*%
%TO.N,SDA*%
X214853000Y-55677000D03*
%TO.P,,3*%
%TO.N,SCL*%
X217393000Y-55677000D03*
%TO.P,,2*%
%TO.N,+5V*%
X219933000Y-55677000D03*
D20*
%TO.P,,1*%
%TO.N,GND*%
X222473000Y-55677000D03*
%TD*%
D21*
%TO.N,SCL*%
X212746301Y-35179000D03*
%TO.N,+5V*%
X261488347Y-74680653D03*
X263735250Y-27896395D03*
%TO.N,GND*%
X263506240Y-77550041D03*
X219079653Y-84332653D03*
X217678000Y-80391000D03*
X264994000Y-26743000D03*
%TO.N,Net-(D2-Pad2)*%
X264287000Y-76835000D03*
X264716517Y-27703733D03*
%TO.N,R3*%
X253619000Y-79502000D03*
X253619000Y-75311000D03*
%TO.N,C3*%
X253684800Y-45404800D03*
%TD*%
D22*
%TO.N,SCL*%
X212746301Y-35179000D02*
X210820000Y-35179000D01*
%TO.N,+5V*%
X215826000Y-25146000D02*
X215826000Y-24331000D01*
X215826000Y-24331000D02*
X216027000Y-24130000D01*
X216027000Y-24130000D02*
X223774000Y-24130000D01*
X224339990Y-24695990D02*
X224339990Y-29648990D01*
X223774000Y-24130000D02*
X224339990Y-24695990D01*
X224790000Y-30099000D02*
X226060000Y-30099000D01*
X224339990Y-29648990D02*
X224790000Y-30099000D01*
X258117000Y-25896000D02*
X259283020Y-27062020D01*
X258117000Y-25146000D02*
X258117000Y-25896000D01*
X260419999Y-75623999D02*
X260419999Y-83000999D01*
X261363345Y-74680653D02*
X260419999Y-75623999D01*
X261488347Y-74680653D02*
X261363345Y-74680653D01*
X259854998Y-83566000D02*
X258117000Y-83566000D01*
X260419999Y-83000999D02*
X259854998Y-83566000D01*
X211391001Y-84391001D02*
X211164000Y-84164000D01*
X217995999Y-84391001D02*
X211391001Y-84391001D01*
X211164000Y-84164000D02*
X211164000Y-83566000D01*
X218821000Y-83566000D02*
X217995999Y-84391001D01*
X258117000Y-83566000D02*
X218821000Y-83566000D01*
X263735250Y-27602750D02*
X263735250Y-27896395D01*
X259283020Y-27062020D02*
X263282020Y-27062020D01*
X263735250Y-27515250D02*
X263735250Y-27896395D01*
X263282020Y-27062020D02*
X263735250Y-27515250D01*
X257175000Y-25146000D02*
X258117000Y-25146000D01*
X257041999Y-25012999D02*
X257175000Y-25146000D01*
X226060000Y-30099000D02*
X226949000Y-30099000D01*
X227711311Y-24766099D02*
X227711311Y-21843689D01*
X226949000Y-30099000D02*
X227457000Y-29591000D01*
X235637480Y-21728020D02*
X236283500Y-21082000D01*
X227457000Y-29591000D02*
X227457000Y-25020410D01*
X227457000Y-25020410D02*
X227711311Y-24766099D01*
X227711311Y-21843689D02*
X227826980Y-21728020D01*
X256805020Y-21728020D02*
X257041999Y-21964999D01*
X227826980Y-21728020D02*
X235637480Y-21728020D01*
X236283500Y-21082000D02*
X239141000Y-21082000D01*
X239141000Y-21082000D02*
X239787019Y-21728019D01*
X239787019Y-21728019D02*
X256805020Y-21728020D01*
X257041999Y-21964999D02*
X257041999Y-25012999D01*
%TO.N,GND*%
X226060000Y-25019000D02*
X225044000Y-25019000D01*
X225044000Y-25019000D02*
X224790000Y-24765000D01*
X224790000Y-24765000D02*
X224790000Y-22479000D01*
X224257000Y-21946000D02*
X220726000Y-21946000D01*
X224790000Y-22479000D02*
X224257000Y-21946000D01*
X263017000Y-21209000D02*
X263017000Y-21946000D01*
X262832010Y-21024010D02*
X263017000Y-21209000D01*
X254948400Y-21024010D02*
X262832010Y-21024010D01*
X254694401Y-21278009D02*
X254948400Y-21024010D01*
X261941999Y-23021001D02*
X261941999Y-25906001D01*
X261941999Y-25906001D02*
X262197998Y-26162000D01*
X263017000Y-21946000D02*
X261941999Y-23021001D01*
X262197998Y-26162000D02*
X264287000Y-26162000D01*
X263017000Y-78039281D02*
X263017000Y-80366000D01*
X263506240Y-77550041D02*
X263017000Y-78039281D01*
X263017000Y-80366000D02*
X261149009Y-80366000D01*
X260870008Y-83187400D02*
X260041398Y-84016010D01*
X260870009Y-80645000D02*
X260870008Y-83187400D01*
X261149009Y-80366000D02*
X260870009Y-80645000D01*
X260041398Y-84016010D02*
X259391990Y-84016010D01*
X259127001Y-84391001D02*
X257106999Y-84391001D01*
X257106999Y-84391001D02*
X256794000Y-84078002D01*
X259391990Y-84126012D02*
X259127001Y-84391001D01*
X259391990Y-84016010D02*
X259391990Y-84126012D01*
X256794000Y-84074000D02*
X256736010Y-84016010D01*
X256794000Y-84078002D02*
X256794000Y-84074000D01*
X256736010Y-84016010D02*
X248158000Y-84016010D01*
X248158000Y-84016010D02*
X227965000Y-84016010D01*
X219396296Y-84016010D02*
X219079653Y-84332653D01*
X227965000Y-84016010D02*
X219396296Y-84016010D01*
X216089000Y-80391000D02*
X216064000Y-80366000D01*
X217678000Y-80391000D02*
X216089000Y-80391000D01*
X264287000Y-26162000D02*
X264795000Y-26670000D01*
X264868000Y-26743000D02*
X264994000Y-26743000D01*
X264795000Y-26670000D02*
X264868000Y-26743000D01*
X254694400Y-21278010D02*
X254948400Y-21024010D01*
X239327401Y-20631991D02*
X239973420Y-21278010D01*
X235451080Y-21278010D02*
X236097100Y-20631990D01*
X227377592Y-21278010D02*
X235451080Y-21278010D01*
X227261301Y-21394301D02*
X227377592Y-21278010D01*
X227261301Y-24579699D02*
X227261301Y-21394301D01*
X236097100Y-20631990D02*
X239327401Y-20631991D01*
X226822000Y-25019000D02*
X227261301Y-24579699D01*
X239973420Y-21278010D02*
X254694400Y-21278010D01*
X226060000Y-25019000D02*
X226822000Y-25019000D01*
%TO.N,Net-(D1-Pad2)*%
X263525000Y-20574000D02*
X264160000Y-21209000D01*
X254508000Y-20828000D02*
X254762000Y-20574000D01*
X264160000Y-25019000D02*
X264033000Y-25146000D01*
X264160000Y-21209000D02*
X264160000Y-25019000D01*
X254762000Y-20574000D02*
X263525000Y-20574000D01*
X264033000Y-25146000D02*
X263017000Y-25146000D01*
X215826000Y-21283000D02*
X216281000Y-20828000D01*
X215826000Y-21946000D02*
X215826000Y-21283000D01*
X216281000Y-20828000D02*
X227191192Y-20828000D01*
X239513802Y-20181982D02*
X240159820Y-20828000D01*
X235910701Y-20181981D02*
X239513802Y-20181982D01*
X235264680Y-20828000D02*
X235910701Y-20181981D01*
X227191192Y-20828000D02*
X235264680Y-20828000D01*
X240159820Y-20828000D02*
X254508000Y-20828000D01*
%TO.N,DIN*%
X220726000Y-37084000D02*
X220726000Y-25146000D01*
X220091000Y-37719000D02*
X220726000Y-37084000D01*
X210820000Y-37719000D02*
X220091000Y-37719000D01*
%TO.N,Net-(D2-Pad2)*%
X258117000Y-21946000D02*
X258117000Y-22405000D01*
X259192001Y-23480001D02*
X259192001Y-25512001D01*
X258117000Y-22405000D02*
X259192001Y-23480001D01*
X259192001Y-25512001D02*
X259192001Y-26147001D01*
X259192001Y-26147001D02*
X259657010Y-26612010D01*
X259657010Y-26612010D02*
X263848010Y-26612010D01*
X263848010Y-26612010D02*
X264414000Y-27178000D01*
X264287000Y-76835000D02*
X264287000Y-83312000D01*
X264033000Y-83566000D02*
X263017000Y-83566000D01*
X264287000Y-83312000D02*
X264033000Y-83566000D01*
X264414000Y-27401216D02*
X264716517Y-27703733D01*
X264414000Y-27178000D02*
X264414000Y-27401216D01*
%TO.N,Net-(D3-Pad2)*%
X225624000Y-71700000D02*
X226695000Y-72771000D01*
X220940000Y-71700000D02*
X225624000Y-71700000D01*
%TO.N,R3*%
X253619000Y-79502000D02*
X252984000Y-80137000D01*
X252984000Y-80137000D02*
X245745000Y-80137000D01*
X263144000Y-75311000D02*
X261714099Y-73881099D01*
X264287000Y-75311000D02*
X263144000Y-75311000D01*
X245491000Y-80391000D02*
X245745000Y-80137000D01*
X226695000Y-80391000D02*
X245491000Y-80391000D01*
X261714099Y-73881099D02*
X255048901Y-73881099D01*
X255048901Y-73881099D02*
X253619000Y-75311000D01*
%TO.N,Net-(D10-Pad4)*%
X218634599Y-83115991D02*
X218184590Y-83566000D01*
X256732008Y-83115990D02*
X218634599Y-83115991D01*
X257413999Y-82433999D02*
X256732008Y-83115990D01*
X258117000Y-82433999D02*
X257413999Y-82433999D01*
X218184590Y-83566000D02*
X216064000Y-83566000D01*
X258117000Y-80366000D02*
X258117000Y-82433999D01*
%TO.N,Net-(D5-Pad2)*%
X244674000Y-52650000D02*
X245745000Y-53721000D01*
X239990000Y-52650000D02*
X244674000Y-52650000D01*
%TO.N,R2*%
X264287000Y-61341000D02*
X245745000Y-61341000D01*
X245745000Y-61341000D02*
X212852000Y-61341000D01*
X212852000Y-61341000D02*
X212090000Y-60579000D01*
X212090000Y-60579000D02*
X212090000Y-48260000D01*
X211709000Y-47879000D02*
X210820000Y-47879000D01*
X212090000Y-48260000D02*
X211709000Y-47879000D01*
%TO.N,Net-(D6-Pad2)*%
X244928000Y-71700000D02*
X245745000Y-72517000D01*
X239990000Y-71700000D02*
X244928000Y-71700000D01*
%TO.N,Net-(D7-Pad2)*%
X257545200Y-30647000D02*
X257556000Y-30657800D01*
X253684800Y-30647000D02*
X257545200Y-30647000D01*
%TO.N,R1*%
X257556000Y-38277800D02*
X257556000Y-40132000D01*
X257429000Y-40259000D02*
X226060000Y-40259000D01*
X257556000Y-40132000D02*
X257429000Y-40259000D01*
%TO.N,Net-(D8-Pad2)*%
X263216000Y-52650000D02*
X264287000Y-53721000D01*
X259040000Y-52650000D02*
X263216000Y-52650000D01*
%TO.N,Net-(D9-Pad2)*%
X260278000Y-71700000D02*
X264287000Y-67691000D01*
X259040000Y-71700000D02*
X260278000Y-71700000D01*
%TO.N,C3*%
X253619000Y-45339000D02*
X253684800Y-45404800D01*
X226060000Y-45339000D02*
X253619000Y-45339000D01*
%TO.N,A*%
X239184800Y-30647000D02*
X227798000Y-30647000D01*
X227798000Y-30647000D02*
X227330000Y-31115000D01*
X227330000Y-31115000D02*
X227330000Y-32385000D01*
X227076000Y-32639000D02*
X226060000Y-32639000D01*
X227330000Y-32385000D02*
X227076000Y-32639000D01*
%TO.N,B*%
X227076000Y-35179000D02*
X226060000Y-35179000D01*
X227262401Y-34992599D02*
X227076000Y-35179000D01*
X227780010Y-32571400D02*
X227262401Y-33089009D01*
X227984400Y-31097010D02*
X227780010Y-31301400D01*
X237599010Y-31097010D02*
X227984400Y-31097010D01*
X237859799Y-31357799D02*
X237599010Y-31097010D01*
X227262401Y-33089009D02*
X227262401Y-34992599D01*
X227780010Y-31301400D02*
X227780010Y-32571400D01*
X237859799Y-35167799D02*
X237859799Y-31357799D01*
X238339000Y-35647000D02*
X237859799Y-35167799D01*
X239184800Y-35647000D02*
X238339000Y-35647000D01*
%TD*%
M02*
