M48
; DRILL file {KiCad (5.1.12)-1} date 11/30/21 17:32:00
; FORMAT={-:-/ absolute / inch / decimal}
; #@! TF.CreationDate,2021-11-30T17:32:00-06:00
; #@! TF.GenerationSoftware,Kicad,Pcbnew,(5.1.12)-1
; #@! TF.FileFunction,Plated,1,2,PTH
FMAT,2
INCH
T1C0.0157
T2C0.0315
T3C0.0394
T4C0.0430
T5C0.0579
%
G90
G05
T1
X8.3758Y-1.385
X8.57Y-3.165
X8.6252Y-3.3202
X9.985Y-2.965
X9.985Y-3.13
X9.9876Y-1.7876
X10.2948Y-2.9402
X10.3743Y-3.0532
X10.3833Y-1.0983
X10.405Y-3.025
X10.4219Y-1.0907
X10.4328Y-1.0529
T2
X8.925Y-2.865
X8.925Y-3.165
X9.675Y-2.115
X9.675Y-2.415
X9.675Y-2.855
X9.675Y-3.155
X10.14Y-1.207
X10.14Y-1.507
X10.405Y-2.115
X10.405Y-2.415
X10.405Y-2.665
X10.405Y-2.965
T3
X8.4588Y-2.192
X8.5588Y-2.192
X8.6588Y-2.192
X8.7588Y-2.192
X9.4167Y-1.2066
X9.4167Y-1.305
X9.4167Y-1.4034
X9.9876Y-1.2066
X9.9876Y-1.4034
T4
X8.3Y-0.885
X8.3Y-0.985
X8.3Y-1.085
X8.3Y-1.185
X8.3Y-1.285
X8.3Y-1.385
X8.3Y-1.485
X8.3Y-1.585
X8.3Y-1.685
X8.3Y-1.785
X8.3Y-1.885
X8.3Y-1.985
X8.9Y-0.885
X8.9Y-0.985
X8.9Y-1.085
X8.9Y-1.185
X8.9Y-1.285
X8.9Y-1.385
X8.9Y-1.485
X8.9Y-1.585
X8.9Y-1.685
X8.9Y-1.785
X8.9Y-1.885
X8.9Y-1.985
T5
X8.45Y-2.9
X8.5016Y-2.8425
X8.6984Y-2.8228
X8.7Y-2.8
X9.2Y-2.15
X9.2Y-2.9
X9.2516Y-2.0925
X9.2516Y-2.8425
X9.4484Y-2.0728
X9.4484Y-2.8228
X9.45Y-2.05
X9.45Y-2.8
X9.95Y-2.15
X9.95Y-2.9
X10.0016Y-2.0925
X10.0016Y-2.8425
X10.1984Y-2.0728
X10.1984Y-2.8228
X10.2Y-2.05
X10.2Y-2.8
T0
M30
