M48
; DRILL file {KiCad (6.0.0-rc1-291-g863699f2d1)} date Thu Dec  2 17:31:06 2021
; FORMAT={-:-/ absolute / inch / decimal}
; #@! TF.CreationDate,2021-12-02T17:31:06-06:00
; #@! TF.GenerationSoftware,Kicad,Pcbnew,(6.0.0-rc1-291-g863699f2d1)
; #@! TF.FileFunction,Plated,1,2,PTH
FMAT,2
INCH
; #@! TA.AperFunction,Plated,PTH,ViaDrill
T1C0.0157
; #@! TA.AperFunction,Plated,PTH,ComponentDrill
T2C0.0315
; #@! TA.AperFunction,Plated,PTH,ComponentDrill
T3C0.0394
; #@! TA.AperFunction,Plated,PTH,ComponentDrill
T4C0.0430
; #@! TA.AperFunction,Plated,PTH,ComponentDrill
T5C0.0579
; #@! TA.AperFunction,Plated,PTH,ComponentDrill
T6C0.0984
%
G90
G05
T1
X8.2715Y-2.1909
X8.2992Y-3.1142
X8.7557Y-2.6325
X9.95Y-1.7811
T2
X8.925Y-2.865
X8.925Y-3.165
X9.675Y-2.115
X9.675Y-2.415
X9.675Y-2.855
X9.675Y-3.155
X10.14Y-1.207
X10.14Y-1.507
X10.405Y-2.115
X10.405Y-2.415
X10.405Y-2.855
X10.405Y-3.155
T3
X8.4588Y-2.192
X8.5588Y-2.192
X8.6588Y-2.192
X8.7588Y-2.192
X9.4167Y-1.2066
X9.4167Y-1.305
X9.4167Y-1.4034
X9.9876Y-1.2066
X9.9876Y-1.4034
T4
X8.3Y-0.885
X8.3Y-0.985
X8.3Y-1.085
X8.3Y-1.185
X8.3Y-1.285
X8.3Y-1.385
X8.3Y-1.485
X8.3Y-1.585
X8.3Y-1.685
X8.3Y-1.785
X8.3Y-1.885
X8.3Y-1.985
X8.9Y-0.885
X8.9Y-0.985
X8.9Y-1.085
X8.9Y-1.185
X8.9Y-1.285
X8.9Y-1.385
X8.9Y-1.485
X8.9Y-1.585
X8.9Y-1.685
X8.9Y-1.785
X8.9Y-1.885
X8.9Y-1.985
T5
X8.45Y-2.9
X8.7Y-2.8
X9.2Y-2.15
X9.2Y-2.9
X9.45Y-2.05
X9.45Y-2.8
X9.95Y-2.15
X9.95Y-2.9
X10.2Y-2.05
X10.2Y-2.8
T6
X8.5475Y-2.6325
X9.35Y-0.935
X10.1625Y-2.6325
T0
M30
