M48
; DRILL file {KiCad (5.1.12)-1} date 11/30/21 17:32:00
; FORMAT={-:-/ absolute / inch / decimal}
; #@! TF.CreationDate,2021-11-30T17:32:00-06:00
; #@! TF.GenerationSoftware,Kicad,Pcbnew,(5.1.12)-1
; #@! TF.FileFunction,NonPlated,1,2,NPTH
FMAT,2
INCH
T1C0.0591
T2C0.0689
T3C0.0787
T4C0.1570
%
G90
G05
T2
X8.4Y-3.0
X8.8Y-3.0
X9.15Y-2.25
X9.15Y-3.0
X9.55Y-2.25
X9.55Y-3.0
X9.9Y-2.25
X9.9Y-3.0
X10.3Y-2.25
X10.3Y-3.0
T3
X8.5425Y-2.5625
X9.35Y-0.935
X10.1575Y-2.5625
T4
X8.6Y-3.0
X9.35Y-2.25
X9.35Y-3.0
X10.1Y-2.25
X10.1Y-3.0
T1
G00X9.6864Y-1.0845
M15
G01X9.7376Y-1.0845
M16
G05
G00X9.6864Y-1.5255
M15
G01X9.7376Y-1.5255
M16
G05
T0
M30
