%TF.GenerationSoftware,KiCad,Pcbnew,(6.0.0-rc1-291-g863699f2d1)*%
%TF.CreationDate,2021-12-02T17:31:09-06:00*%
%TF.ProjectId,Kinetic.Pad,4b696e65-7469-4632-9e50-61642e6b6963,rev?*%
%TF.SameCoordinates,Original*%
%TF.FileFunction,Legend,Bot*%
%TF.FilePolarity,Positive*%
%FSLAX46Y46*%
G04 Gerber Fmt 4.6, Leading zero omitted, Abs format (unit mm)*
G04 Created by KiCad (PCBNEW (6.0.0-rc1-291-g863699f2d1)) date 2021-12-02 17:31:09*
%MOMM*%
%LPD*%
G01*
G04 APERTURE LIST*
%ADD10C,0.150000*%
%ADD11C,0.381000*%
%ADD12C,0.120000*%
%ADD13R,1.752600X1.752600*%
%ADD14C,1.752600*%
G04 APERTURE END LIST*
D10*
X214986904Y-83589761D02*
X214844047Y-83637380D01*
X214605952Y-83637380D01*
X214510714Y-83589761D01*
X214463095Y-83542142D01*
X214415476Y-83446904D01*
X214415476Y-83351666D01*
X214463095Y-83256428D01*
X214510714Y-83208809D01*
X214605952Y-83161190D01*
X214796428Y-83113571D01*
X214891666Y-83065952D01*
X214939285Y-83018333D01*
X214986904Y-82923095D01*
X214986904Y-82827857D01*
X214939285Y-82732619D01*
X214891666Y-82685000D01*
X214796428Y-82637380D01*
X214558333Y-82637380D01*
X214415476Y-82685000D01*
X213986904Y-83637380D02*
X213986904Y-82970714D01*
X213986904Y-82637380D02*
X214034523Y-82685000D01*
X213986904Y-82732619D01*
X213939285Y-82685000D01*
X213986904Y-82637380D01*
X213986904Y-82732619D01*
X213082142Y-83637380D02*
X213082142Y-82637380D01*
X213082142Y-83589761D02*
X213177380Y-83637380D01*
X213367857Y-83637380D01*
X213463095Y-83589761D01*
X213510714Y-83542142D01*
X213558333Y-83446904D01*
X213558333Y-83161190D01*
X213510714Y-83065952D01*
X213463095Y-83018333D01*
X213367857Y-82970714D01*
X213177380Y-82970714D01*
X213082142Y-83018333D01*
X212225000Y-83589761D02*
X212320238Y-83637380D01*
X212510714Y-83637380D01*
X212605952Y-83589761D01*
X212653571Y-83494523D01*
X212653571Y-83113571D01*
X212605952Y-83018333D01*
X212510714Y-82970714D01*
X212320238Y-82970714D01*
X212225000Y-83018333D01*
X212177380Y-83113571D01*
X212177380Y-83208809D01*
X212653571Y-83304047D01*
X211034523Y-82732619D02*
X210986904Y-82685000D01*
X210891666Y-82637380D01*
X210653571Y-82637380D01*
X210558333Y-82685000D01*
X210510714Y-82732619D01*
X210463095Y-82827857D01*
X210463095Y-82923095D01*
X210510714Y-83065952D01*
X211082142Y-83637380D01*
X210463095Y-83637380D01*
%TO.C,U1*%
X224224809Y-50361857D02*
X224110523Y-50399952D01*
X224072428Y-50438047D01*
X224034333Y-50514238D01*
X224034333Y-50628523D01*
X224072428Y-50704714D01*
X224110523Y-50742809D01*
X224186714Y-50780904D01*
X224491476Y-50780904D01*
X224491476Y-49980904D01*
X224224809Y-49980904D01*
X224148619Y-50019000D01*
X224110523Y-50057095D01*
X224072428Y-50133285D01*
X224072428Y-50209476D01*
X224110523Y-50285666D01*
X224148619Y-50323761D01*
X224224809Y-50361857D01*
X224491476Y-50361857D01*
X223348619Y-49980904D02*
X223501000Y-49980904D01*
X223577190Y-50019000D01*
X223615285Y-50057095D01*
X223691476Y-50171380D01*
X223729571Y-50323761D01*
X223729571Y-50628523D01*
X223691476Y-50704714D01*
X223653380Y-50742809D01*
X223577190Y-50780904D01*
X223424809Y-50780904D01*
X223348619Y-50742809D01*
X223310523Y-50704714D01*
X223272428Y-50628523D01*
X223272428Y-50438047D01*
X223310523Y-50361857D01*
X223348619Y-50323761D01*
X223424809Y-50285666D01*
X223577190Y-50285666D01*
X223653380Y-50323761D01*
X223691476Y-50361857D01*
X223729571Y-50438047D01*
X224967666Y-29660904D02*
X224701000Y-30460904D01*
X224434333Y-29660904D01*
X223710523Y-30384714D02*
X223748619Y-30422809D01*
X223862904Y-30460904D01*
X223939095Y-30460904D01*
X224053380Y-30422809D01*
X224129571Y-30346619D01*
X224167666Y-30270428D01*
X224205761Y-30118047D01*
X224205761Y-30003761D01*
X224167666Y-29851380D01*
X224129571Y-29775190D01*
X224053380Y-29699000D01*
X223939095Y-29660904D01*
X223862904Y-29660904D01*
X223748619Y-29699000D01*
X223710523Y-29737095D01*
X222910523Y-30384714D02*
X222948619Y-30422809D01*
X223062904Y-30460904D01*
X223139095Y-30460904D01*
X223253380Y-30422809D01*
X223329571Y-30346619D01*
X223367666Y-30270428D01*
X223405761Y-30118047D01*
X223405761Y-30003761D01*
X223367666Y-29851380D01*
X223329571Y-29775190D01*
X223253380Y-29699000D01*
X223139095Y-29660904D01*
X223062904Y-29660904D01*
X222948619Y-29699000D01*
X222910523Y-29737095D01*
X213569476Y-33000904D02*
X213569476Y-32200904D01*
X213379000Y-32200904D01*
X213264714Y-32239000D01*
X213188523Y-32315190D01*
X213150428Y-32391380D01*
X213112333Y-32543761D01*
X213112333Y-32658047D01*
X213150428Y-32810428D01*
X213188523Y-32886619D01*
X213264714Y-32962809D01*
X213379000Y-33000904D01*
X213569476Y-33000904D01*
X212350428Y-33000904D02*
X212807571Y-33000904D01*
X212579000Y-33000904D02*
X212579000Y-32200904D01*
X212655190Y-32315190D01*
X212731380Y-32391380D01*
X212807571Y-32429476D01*
X213112333Y-40544714D02*
X213150428Y-40582809D01*
X213264714Y-40620904D01*
X213340904Y-40620904D01*
X213455190Y-40582809D01*
X213531380Y-40506619D01*
X213569476Y-40430428D01*
X213607571Y-40278047D01*
X213607571Y-40163761D01*
X213569476Y-40011380D01*
X213531380Y-39935190D01*
X213455190Y-39859000D01*
X213340904Y-39820904D01*
X213264714Y-39820904D01*
X213150428Y-39859000D01*
X213112333Y-39897095D01*
X212426619Y-39820904D02*
X212579000Y-39820904D01*
X212655190Y-39859000D01*
X212693285Y-39897095D01*
X212769476Y-40011380D01*
X212807571Y-40163761D01*
X212807571Y-40468523D01*
X212769476Y-40544714D01*
X212731380Y-40582809D01*
X212655190Y-40620904D01*
X212502809Y-40620904D01*
X212426619Y-40582809D01*
X212388523Y-40544714D01*
X212350428Y-40468523D01*
X212350428Y-40278047D01*
X212388523Y-40201857D01*
X212426619Y-40163761D01*
X212502809Y-40125666D01*
X212655190Y-40125666D01*
X212731380Y-40163761D01*
X212769476Y-40201857D01*
X212807571Y-40278047D01*
X224167666Y-32581857D02*
X224434333Y-32581857D01*
X224434333Y-33000904D02*
X224434333Y-32200904D01*
X224053380Y-32200904D01*
X223405761Y-32467571D02*
X223405761Y-33000904D01*
X223596238Y-32162809D02*
X223786714Y-32734238D01*
X223291476Y-32734238D01*
X224167666Y-40201857D02*
X224434333Y-40201857D01*
X224434333Y-40620904D02*
X224434333Y-39820904D01*
X224053380Y-39820904D01*
X223824809Y-39820904D02*
X223291476Y-39820904D01*
X223634333Y-40620904D01*
X213569476Y-25380904D02*
X213569476Y-24580904D01*
X213379000Y-24580904D01*
X213264714Y-24619000D01*
X213188523Y-24695190D01*
X213150428Y-24771380D01*
X213112333Y-24923761D01*
X213112333Y-25038047D01*
X213150428Y-25190428D01*
X213188523Y-25266619D01*
X213264714Y-25342809D01*
X213379000Y-25380904D01*
X213569476Y-25380904D01*
X212807571Y-24657095D02*
X212769476Y-24619000D01*
X212693285Y-24580904D01*
X212502809Y-24580904D01*
X212426619Y-24619000D01*
X212388523Y-24657095D01*
X212350428Y-24733285D01*
X212350428Y-24809476D01*
X212388523Y-24923761D01*
X212845666Y-25380904D01*
X212350428Y-25380904D01*
X213569476Y-43160904D02*
X213569476Y-42360904D01*
X213379000Y-42360904D01*
X213264714Y-42399000D01*
X213188523Y-42475190D01*
X213150428Y-42551380D01*
X213112333Y-42703761D01*
X213112333Y-42818047D01*
X213150428Y-42970428D01*
X213188523Y-43046619D01*
X213264714Y-43122809D01*
X213379000Y-43160904D01*
X213569476Y-43160904D01*
X212845666Y-42360904D02*
X212312333Y-42360904D01*
X212655190Y-43160904D01*
X213588523Y-29699000D02*
X213664714Y-29660904D01*
X213779000Y-29660904D01*
X213893285Y-29699000D01*
X213969476Y-29775190D01*
X214007571Y-29851380D01*
X214045666Y-30003761D01*
X214045666Y-30118047D01*
X214007571Y-30270428D01*
X213969476Y-30346619D01*
X213893285Y-30422809D01*
X213779000Y-30460904D01*
X213702809Y-30460904D01*
X213588523Y-30422809D01*
X213550428Y-30384714D01*
X213550428Y-30118047D01*
X213702809Y-30118047D01*
X213207571Y-30460904D02*
X213207571Y-29660904D01*
X212750428Y-30460904D01*
X212750428Y-29660904D01*
X212369476Y-30460904D02*
X212369476Y-29660904D01*
X212179000Y-29660904D01*
X212064714Y-29699000D01*
X211988523Y-29775190D01*
X211950428Y-29851380D01*
X211912333Y-30003761D01*
X211912333Y-30118047D01*
X211950428Y-30270428D01*
X211988523Y-30346619D01*
X212064714Y-30422809D01*
X212179000Y-30460904D01*
X212369476Y-30460904D01*
X217058604Y-22040904D02*
X216601461Y-22040904D01*
X216830032Y-22840904D02*
X216830032Y-22040904D01*
X216410985Y-22040904D02*
X215877651Y-22840904D01*
X215877651Y-22040904D02*
X216410985Y-22840904D01*
X215420508Y-22040904D02*
X215344318Y-22040904D01*
X215268128Y-22079000D01*
X215230032Y-22117095D01*
X215191937Y-22193285D01*
X215153842Y-22345666D01*
X215153842Y-22536142D01*
X215191937Y-22688523D01*
X215230032Y-22764714D01*
X215268128Y-22802809D01*
X215344318Y-22840904D01*
X215420508Y-22840904D01*
X215496699Y-22802809D01*
X215534794Y-22764714D01*
X215572889Y-22688523D01*
X215610985Y-22536142D01*
X215610985Y-22345666D01*
X215572889Y-22193285D01*
X215534794Y-22117095D01*
X215496699Y-22079000D01*
X215420508Y-22040904D01*
X214239556Y-22002809D02*
X214925270Y-23031380D01*
X213972889Y-22840904D02*
X213972889Y-22040904D01*
X213782413Y-22040904D01*
X213668128Y-22079000D01*
X213591937Y-22155190D01*
X213553842Y-22231380D01*
X213515747Y-22383761D01*
X213515747Y-22498047D01*
X213553842Y-22650428D01*
X213591937Y-22726619D01*
X213668128Y-22802809D01*
X213782413Y-22840904D01*
X213972889Y-22840904D01*
X213249080Y-22040904D02*
X212753842Y-22040904D01*
X213020508Y-22345666D01*
X212906223Y-22345666D01*
X212830032Y-22383761D01*
X212791937Y-22421857D01*
X212753842Y-22498047D01*
X212753842Y-22688523D01*
X212791937Y-22764714D01*
X212830032Y-22802809D01*
X212906223Y-22840904D01*
X213134794Y-22840904D01*
X213210985Y-22802809D01*
X213249080Y-22764714D01*
X224510523Y-24619000D02*
X224586714Y-24580904D01*
X224701000Y-24580904D01*
X224815285Y-24619000D01*
X224891476Y-24695190D01*
X224929571Y-24771380D01*
X224967666Y-24923761D01*
X224967666Y-25038047D01*
X224929571Y-25190428D01*
X224891476Y-25266619D01*
X224815285Y-25342809D01*
X224701000Y-25380904D01*
X224624809Y-25380904D01*
X224510523Y-25342809D01*
X224472428Y-25304714D01*
X224472428Y-25038047D01*
X224624809Y-25038047D01*
X224129571Y-25380904D02*
X224129571Y-24580904D01*
X223672428Y-25380904D01*
X223672428Y-24580904D01*
X223291476Y-25380904D02*
X223291476Y-24580904D01*
X223101000Y-24580904D01*
X222986714Y-24619000D01*
X222910523Y-24695190D01*
X222872428Y-24771380D01*
X222834333Y-24923761D01*
X222834333Y-25038047D01*
X222872428Y-25190428D01*
X222910523Y-25266619D01*
X222986714Y-25342809D01*
X223101000Y-25380904D01*
X223291476Y-25380904D01*
X213569476Y-35540904D02*
X213569476Y-34740904D01*
X213379000Y-34740904D01*
X213264714Y-34779000D01*
X213188523Y-34855190D01*
X213150428Y-34931380D01*
X213112333Y-35083761D01*
X213112333Y-35198047D01*
X213150428Y-35350428D01*
X213188523Y-35426619D01*
X213264714Y-35502809D01*
X213379000Y-35540904D01*
X213569476Y-35540904D01*
X212617095Y-34740904D02*
X212540904Y-34740904D01*
X212464714Y-34779000D01*
X212426619Y-34817095D01*
X212388523Y-34893285D01*
X212350428Y-35045666D01*
X212350428Y-35236142D01*
X212388523Y-35388523D01*
X212426619Y-35464714D01*
X212464714Y-35502809D01*
X212540904Y-35540904D01*
X212617095Y-35540904D01*
X212693285Y-35502809D01*
X212731380Y-35464714D01*
X212769476Y-35388523D01*
X212807571Y-35236142D01*
X212807571Y-35045666D01*
X212769476Y-34893285D01*
X212731380Y-34817095D01*
X212693285Y-34779000D01*
X212617095Y-34740904D01*
X213302809Y-50361857D02*
X213188523Y-50399952D01*
X213150428Y-50438047D01*
X213112333Y-50514238D01*
X213112333Y-50628523D01*
X213150428Y-50704714D01*
X213188523Y-50742809D01*
X213264714Y-50780904D01*
X213569476Y-50780904D01*
X213569476Y-49980904D01*
X213302809Y-49980904D01*
X213226619Y-50019000D01*
X213188523Y-50057095D01*
X213150428Y-50133285D01*
X213150428Y-50209476D01*
X213188523Y-50285666D01*
X213226619Y-50323761D01*
X213302809Y-50361857D01*
X213569476Y-50361857D01*
X212388523Y-49980904D02*
X212769476Y-49980904D01*
X212807571Y-50361857D01*
X212769476Y-50323761D01*
X212693285Y-50285666D01*
X212502809Y-50285666D01*
X212426619Y-50323761D01*
X212388523Y-50361857D01*
X212350428Y-50438047D01*
X212350428Y-50628523D01*
X212388523Y-50704714D01*
X212426619Y-50742809D01*
X212502809Y-50780904D01*
X212693285Y-50780904D01*
X212769476Y-50742809D01*
X212807571Y-50704714D01*
X213588523Y-27159000D02*
X213664714Y-27120904D01*
X213779000Y-27120904D01*
X213893285Y-27159000D01*
X213969476Y-27235190D01*
X214007571Y-27311380D01*
X214045666Y-27463761D01*
X214045666Y-27578047D01*
X214007571Y-27730428D01*
X213969476Y-27806619D01*
X213893285Y-27882809D01*
X213779000Y-27920904D01*
X213702809Y-27920904D01*
X213588523Y-27882809D01*
X213550428Y-27844714D01*
X213550428Y-27578047D01*
X213702809Y-27578047D01*
X213207571Y-27920904D02*
X213207571Y-27120904D01*
X212750428Y-27920904D01*
X212750428Y-27120904D01*
X212369476Y-27920904D02*
X212369476Y-27120904D01*
X212179000Y-27120904D01*
X212064714Y-27159000D01*
X211988523Y-27235190D01*
X211950428Y-27311380D01*
X211912333Y-27463761D01*
X211912333Y-27578047D01*
X211950428Y-27730428D01*
X211988523Y-27806619D01*
X212064714Y-27882809D01*
X212179000Y-27920904D01*
X212369476Y-27920904D01*
X224453380Y-22840904D02*
X224720047Y-22459952D01*
X224910523Y-22840904D02*
X224910523Y-22040904D01*
X224605761Y-22040904D01*
X224529571Y-22079000D01*
X224491476Y-22117095D01*
X224453380Y-22193285D01*
X224453380Y-22307571D01*
X224491476Y-22383761D01*
X224529571Y-22421857D01*
X224605761Y-22459952D01*
X224910523Y-22459952D01*
X224148619Y-22612333D02*
X223767666Y-22612333D01*
X224224809Y-22840904D02*
X223958142Y-22040904D01*
X223691476Y-22840904D01*
X223501000Y-22040904D02*
X223310523Y-22840904D01*
X223158142Y-22269476D01*
X223005761Y-22840904D01*
X222815285Y-22040904D01*
X224224809Y-45281857D02*
X224110523Y-45319952D01*
X224072428Y-45358047D01*
X224034333Y-45434238D01*
X224034333Y-45548523D01*
X224072428Y-45624714D01*
X224110523Y-45662809D01*
X224186714Y-45700904D01*
X224491476Y-45700904D01*
X224491476Y-44900904D01*
X224224809Y-44900904D01*
X224148619Y-44939000D01*
X224110523Y-44977095D01*
X224072428Y-45053285D01*
X224072428Y-45129476D01*
X224110523Y-45205666D01*
X224148619Y-45243761D01*
X224224809Y-45281857D01*
X224491476Y-45281857D01*
X223767666Y-44900904D02*
X223272428Y-44900904D01*
X223539095Y-45205666D01*
X223424809Y-45205666D01*
X223348619Y-45243761D01*
X223310523Y-45281857D01*
X223272428Y-45358047D01*
X223272428Y-45548523D01*
X223310523Y-45624714D01*
X223348619Y-45662809D01*
X223424809Y-45700904D01*
X223653380Y-45700904D01*
X223729571Y-45662809D01*
X223767666Y-45624714D01*
X224167666Y-35121857D02*
X224434333Y-35121857D01*
X224434333Y-35540904D02*
X224434333Y-34740904D01*
X224053380Y-34740904D01*
X223367666Y-34740904D02*
X223748619Y-34740904D01*
X223786714Y-35121857D01*
X223748619Y-35083761D01*
X223672428Y-35045666D01*
X223481952Y-35045666D01*
X223405761Y-35083761D01*
X223367666Y-35121857D01*
X223329571Y-35198047D01*
X223329571Y-35388523D01*
X223367666Y-35464714D01*
X223405761Y-35502809D01*
X223481952Y-35540904D01*
X223672428Y-35540904D01*
X223748619Y-35502809D01*
X223786714Y-35464714D01*
X224224809Y-47821857D02*
X224110523Y-47859952D01*
X224072428Y-47898047D01*
X224034333Y-47974238D01*
X224034333Y-48088523D01*
X224072428Y-48164714D01*
X224110523Y-48202809D01*
X224186714Y-48240904D01*
X224491476Y-48240904D01*
X224491476Y-47440904D01*
X224224809Y-47440904D01*
X224148619Y-47479000D01*
X224110523Y-47517095D01*
X224072428Y-47593285D01*
X224072428Y-47669476D01*
X224110523Y-47745666D01*
X224148619Y-47783761D01*
X224224809Y-47821857D01*
X224491476Y-47821857D01*
X223729571Y-47517095D02*
X223691476Y-47479000D01*
X223615285Y-47440904D01*
X223424809Y-47440904D01*
X223348619Y-47479000D01*
X223310523Y-47517095D01*
X223272428Y-47593285D01*
X223272428Y-47669476D01*
X223310523Y-47783761D01*
X223767666Y-48240904D01*
X223272428Y-48240904D01*
X224167666Y-37661857D02*
X224434333Y-37661857D01*
X224434333Y-38080904D02*
X224434333Y-37280904D01*
X224053380Y-37280904D01*
X223405761Y-37280904D02*
X223558142Y-37280904D01*
X223634333Y-37319000D01*
X223672428Y-37357095D01*
X223748619Y-37471380D01*
X223786714Y-37623761D01*
X223786714Y-37928523D01*
X223748619Y-38004714D01*
X223710523Y-38042809D01*
X223634333Y-38080904D01*
X223481952Y-38080904D01*
X223405761Y-38042809D01*
X223367666Y-38004714D01*
X223329571Y-37928523D01*
X223329571Y-37738047D01*
X223367666Y-37661857D01*
X223405761Y-37623761D01*
X223481952Y-37585666D01*
X223634333Y-37585666D01*
X223710523Y-37623761D01*
X223748619Y-37661857D01*
X223786714Y-37738047D01*
X213569476Y-38080904D02*
X213569476Y-37280904D01*
X213379000Y-37280904D01*
X213264714Y-37319000D01*
X213188523Y-37395190D01*
X213150428Y-37471380D01*
X213112333Y-37623761D01*
X213112333Y-37738047D01*
X213150428Y-37890428D01*
X213188523Y-37966619D01*
X213264714Y-38042809D01*
X213379000Y-38080904D01*
X213569476Y-38080904D01*
X212426619Y-37547571D02*
X212426619Y-38080904D01*
X212617095Y-37242809D02*
X212807571Y-37814238D01*
X212312333Y-37814238D01*
X224224809Y-42741857D02*
X224110523Y-42779952D01*
X224072428Y-42818047D01*
X224034333Y-42894238D01*
X224034333Y-43008523D01*
X224072428Y-43084714D01*
X224110523Y-43122809D01*
X224186714Y-43160904D01*
X224491476Y-43160904D01*
X224491476Y-42360904D01*
X224224809Y-42360904D01*
X224148619Y-42399000D01*
X224110523Y-42437095D01*
X224072428Y-42513285D01*
X224072428Y-42589476D01*
X224110523Y-42665666D01*
X224148619Y-42703761D01*
X224224809Y-42741857D01*
X224491476Y-42741857D01*
X223272428Y-43160904D02*
X223729571Y-43160904D01*
X223501000Y-43160904D02*
X223501000Y-42360904D01*
X223577190Y-42475190D01*
X223653380Y-42551380D01*
X223729571Y-42589476D01*
X213531380Y-45281857D02*
X213264714Y-45281857D01*
X213150428Y-45700904D02*
X213531380Y-45700904D01*
X213531380Y-44900904D01*
X213150428Y-44900904D01*
X212464714Y-44900904D02*
X212617095Y-44900904D01*
X212693285Y-44939000D01*
X212731380Y-44977095D01*
X212807571Y-45091380D01*
X212845666Y-45243761D01*
X212845666Y-45548523D01*
X212807571Y-45624714D01*
X212769476Y-45662809D01*
X212693285Y-45700904D01*
X212540904Y-45700904D01*
X212464714Y-45662809D01*
X212426619Y-45624714D01*
X212388523Y-45548523D01*
X212388523Y-45358047D01*
X212426619Y-45281857D01*
X212464714Y-45243761D01*
X212540904Y-45205666D01*
X212693285Y-45205666D01*
X212769476Y-45243761D01*
X212807571Y-45281857D01*
X212845666Y-45358047D01*
X213302809Y-47821857D02*
X213188523Y-47859952D01*
X213150428Y-47898047D01*
X213112333Y-47974238D01*
X213112333Y-48088523D01*
X213150428Y-48164714D01*
X213188523Y-48202809D01*
X213264714Y-48240904D01*
X213569476Y-48240904D01*
X213569476Y-47440904D01*
X213302809Y-47440904D01*
X213226619Y-47479000D01*
X213188523Y-47517095D01*
X213150428Y-47593285D01*
X213150428Y-47669476D01*
X213188523Y-47745666D01*
X213226619Y-47783761D01*
X213302809Y-47821857D01*
X213569476Y-47821857D01*
X212426619Y-47707571D02*
X212426619Y-48240904D01*
X212617095Y-47402809D02*
X212807571Y-47974238D01*
X212312333Y-47974238D01*
X224013333Y-27862809D02*
X223899047Y-27900904D01*
X223708571Y-27900904D01*
X223632380Y-27862809D01*
X223594285Y-27824714D01*
X223556190Y-27748523D01*
X223556190Y-27672333D01*
X223594285Y-27596142D01*
X223632380Y-27558047D01*
X223708571Y-27519952D01*
X223860952Y-27481857D01*
X223937142Y-27443761D01*
X223975238Y-27405666D01*
X224013333Y-27329476D01*
X224013333Y-27253285D01*
X223975238Y-27177095D01*
X223937142Y-27139000D01*
X223860952Y-27100904D01*
X223670476Y-27100904D01*
X223556190Y-27139000D01*
X223327619Y-27100904D02*
X222870476Y-27100904D01*
X223099047Y-27900904D02*
X223099047Y-27100904D01*
%TO.C,D5*%
X248317380Y-56792904D02*
X247317380Y-56792904D01*
X247317380Y-57031000D01*
X247365000Y-57173857D01*
X247460238Y-57269095D01*
X247555476Y-57316714D01*
X247745952Y-57364333D01*
X247888809Y-57364333D01*
X248079285Y-57316714D01*
X248174523Y-57269095D01*
X248269761Y-57173857D01*
X248317380Y-57031000D01*
X248317380Y-56792904D01*
X247317380Y-58269095D02*
X247317380Y-57792904D01*
X247793571Y-57745285D01*
X247745952Y-57792904D01*
X247698333Y-57888142D01*
X247698333Y-58126238D01*
X247745952Y-58221476D01*
X247793571Y-58269095D01*
X247888809Y-58316714D01*
X248126904Y-58316714D01*
X248222142Y-58269095D01*
X248269761Y-58221476D01*
X248317380Y-58126238D01*
X248317380Y-57888142D01*
X248269761Y-57792904D01*
X248222142Y-57745285D01*
%TO.C,D9*%
X266859380Y-75588904D02*
X265859380Y-75588904D01*
X265859380Y-75827000D01*
X265907000Y-75969857D01*
X266002238Y-76065095D01*
X266097476Y-76112714D01*
X266287952Y-76160333D01*
X266430809Y-76160333D01*
X266621285Y-76112714D01*
X266716523Y-76065095D01*
X266811761Y-75969857D01*
X266859380Y-75827000D01*
X266859380Y-75588904D01*
X266859380Y-76636523D02*
X266859380Y-76827000D01*
X266811761Y-76922238D01*
X266764142Y-76969857D01*
X266621285Y-77065095D01*
X266430809Y-77112714D01*
X266049857Y-77112714D01*
X265954619Y-77065095D01*
X265907000Y-77017476D01*
X265859380Y-76922238D01*
X265859380Y-76731761D01*
X265907000Y-76636523D01*
X265954619Y-76588904D01*
X266049857Y-76541285D01*
X266287952Y-76541285D01*
X266383190Y-76588904D01*
X266430809Y-76636523D01*
X266478428Y-76731761D01*
X266478428Y-76922238D01*
X266430809Y-77017476D01*
X266383190Y-77065095D01*
X266287952Y-77112714D01*
D11*
%TO.C,U1*%
X209550000Y-18669000D02*
X209550000Y-51689000D01*
X227330000Y-51689000D02*
X227330000Y-18669000D01*
X212090000Y-21209000D02*
X212090000Y-23749000D01*
X227330000Y-18669000D02*
X209550000Y-18669000D01*
X209550000Y-51689000D02*
X227330000Y-51689000D01*
X212090000Y-21209000D02*
X209550000Y-21209000D01*
X212090000Y-23749000D02*
X209550000Y-23749000D01*
D10*
X224284635Y-27098030D02*
X224284635Y-27398030D01*
X224284635Y-27398030D02*
X224384635Y-27398030D01*
X224384635Y-27398030D02*
X224384635Y-27098030D01*
X224384635Y-27098030D02*
X224284635Y-27098030D01*
G36*
X224384635Y-27398030D02*
G01*
X224284635Y-27398030D01*
X224284635Y-27098030D01*
X224384635Y-27098030D01*
X224384635Y-27398030D01*
G37*
X224384635Y-27398030D02*
X224284635Y-27398030D01*
X224284635Y-27098030D01*
X224384635Y-27098030D01*
X224384635Y-27398030D01*
X224284635Y-27698030D02*
X224284635Y-27898030D01*
X224284635Y-27898030D02*
X224384635Y-27898030D01*
X224384635Y-27898030D02*
X224384635Y-27698030D01*
X224384635Y-27698030D02*
X224284635Y-27698030D01*
G36*
X224384635Y-27898030D02*
G01*
X224284635Y-27898030D01*
X224284635Y-27698030D01*
X224384635Y-27698030D01*
X224384635Y-27898030D01*
G37*
X224384635Y-27898030D02*
X224284635Y-27898030D01*
X224284635Y-27698030D01*
X224384635Y-27698030D01*
X224384635Y-27898030D01*
X224484635Y-27498030D02*
X224484635Y-27598030D01*
X224484635Y-27598030D02*
X224584635Y-27598030D01*
X224584635Y-27598030D02*
X224584635Y-27498030D01*
X224584635Y-27498030D02*
X224484635Y-27498030D01*
G36*
X224584635Y-27598030D02*
G01*
X224484635Y-27598030D01*
X224484635Y-27498030D01*
X224584635Y-27498030D01*
X224584635Y-27598030D01*
G37*
X224584635Y-27598030D02*
X224484635Y-27598030D01*
X224484635Y-27498030D01*
X224584635Y-27498030D01*
X224584635Y-27598030D01*
X224284635Y-27098030D02*
X224284635Y-27198030D01*
X224284635Y-27198030D02*
X224784635Y-27198030D01*
X224784635Y-27198030D02*
X224784635Y-27098030D01*
X224784635Y-27098030D02*
X224284635Y-27098030D01*
G36*
X224784635Y-27198030D02*
G01*
X224284635Y-27198030D01*
X224284635Y-27098030D01*
X224784635Y-27098030D01*
X224784635Y-27198030D01*
G37*
X224784635Y-27198030D02*
X224284635Y-27198030D01*
X224284635Y-27098030D01*
X224784635Y-27098030D01*
X224784635Y-27198030D01*
X224684635Y-27098030D02*
X224684635Y-27898030D01*
X224684635Y-27898030D02*
X224784635Y-27898030D01*
X224784635Y-27898030D02*
X224784635Y-27098030D01*
X224784635Y-27098030D02*
X224684635Y-27098030D01*
G36*
X224784635Y-27898030D02*
G01*
X224684635Y-27898030D01*
X224684635Y-27098030D01*
X224784635Y-27098030D01*
X224784635Y-27898030D01*
G37*
X224784635Y-27898030D02*
X224684635Y-27898030D01*
X224684635Y-27098030D01*
X224784635Y-27098030D01*
X224784635Y-27898030D01*
D12*
%TO.C,D3*%
X225575000Y-78701000D02*
X225575000Y-74461000D01*
X226695000Y-79351000D02*
X226695000Y-78701000D01*
X227815000Y-78101000D02*
X225575000Y-78101000D01*
X226695000Y-73811000D02*
X226695000Y-74461000D01*
X227815000Y-74461000D02*
X227815000Y-78701000D01*
X225575000Y-74461000D02*
X227815000Y-74461000D01*
X227815000Y-77981000D02*
X225575000Y-77981000D01*
X227815000Y-78701000D02*
X225575000Y-78701000D01*
X227815000Y-77861000D02*
X225575000Y-77861000D01*
%TO.C,D5*%
X244625000Y-59651000D02*
X244625000Y-55411000D01*
X246865000Y-55411000D02*
X246865000Y-59651000D01*
X246865000Y-58931000D02*
X244625000Y-58931000D01*
X246865000Y-58811000D02*
X244625000Y-58811000D01*
X245745000Y-54761000D02*
X245745000Y-55411000D01*
X246865000Y-59651000D02*
X244625000Y-59651000D01*
X246865000Y-59051000D02*
X244625000Y-59051000D01*
X244625000Y-55411000D02*
X246865000Y-55411000D01*
X245745000Y-60301000D02*
X245745000Y-59651000D01*
%TO.C,D6*%
X246865000Y-78447000D02*
X244625000Y-78447000D01*
X244625000Y-78447000D02*
X244625000Y-74207000D01*
X246865000Y-77847000D02*
X244625000Y-77847000D01*
X246865000Y-77727000D02*
X244625000Y-77727000D01*
X246865000Y-74207000D02*
X246865000Y-78447000D01*
X244625000Y-74207000D02*
X246865000Y-74207000D01*
X245745000Y-79097000D02*
X245745000Y-78447000D01*
X245745000Y-73557000D02*
X245745000Y-74207000D01*
X246865000Y-77607000D02*
X244625000Y-77607000D01*
%TO.C,D8*%
X263167000Y-55411000D02*
X265407000Y-55411000D01*
X263167000Y-59651000D02*
X263167000Y-55411000D01*
X265407000Y-59651000D02*
X263167000Y-59651000D01*
X265407000Y-58931000D02*
X263167000Y-58931000D01*
X265407000Y-59051000D02*
X263167000Y-59051000D01*
X264287000Y-60301000D02*
X264287000Y-59651000D01*
X264287000Y-54761000D02*
X264287000Y-55411000D01*
X265407000Y-58811000D02*
X263167000Y-58811000D01*
X265407000Y-55411000D02*
X265407000Y-59651000D01*
%TO.C,D7*%
X258676000Y-35987800D02*
X256436000Y-35987800D01*
X256436000Y-32347800D02*
X258676000Y-32347800D01*
X258676000Y-36587800D02*
X256436000Y-36587800D01*
X257556000Y-31697800D02*
X257556000Y-32347800D01*
X258676000Y-35867800D02*
X256436000Y-35867800D01*
X256436000Y-36587800D02*
X256436000Y-32347800D01*
X258676000Y-35747800D02*
X256436000Y-35747800D01*
X258676000Y-32347800D02*
X258676000Y-36587800D01*
X257556000Y-37237800D02*
X257556000Y-36587800D01*
%TO.C,D9*%
X265407000Y-78447000D02*
X263167000Y-78447000D01*
X265407000Y-74207000D02*
X265407000Y-78447000D01*
X265407000Y-77847000D02*
X263167000Y-77847000D01*
X263167000Y-78447000D02*
X263167000Y-74207000D01*
X265407000Y-77727000D02*
X263167000Y-77727000D01*
X264287000Y-79097000D02*
X264287000Y-78447000D01*
X263167000Y-74207000D02*
X265407000Y-74207000D01*
X264287000Y-73557000D02*
X264287000Y-74207000D01*
X265407000Y-77607000D02*
X263167000Y-77607000D01*
%TD*%
D13*
%TO.C,U1*%
X210820000Y-22479000D03*
D14*
X210820000Y-25019000D03*
X210820000Y-27559000D03*
X210820000Y-30099000D03*
X210820000Y-32639000D03*
X210820000Y-35179000D03*
X210820000Y-37719000D03*
X210820000Y-40259000D03*
X210820000Y-42799000D03*
X210820000Y-45339000D03*
X210820000Y-47879000D03*
X210820000Y-50419000D03*
X226060000Y-50419000D03*
X226060000Y-47879000D03*
X226060000Y-45339000D03*
X226060000Y-42799000D03*
X226060000Y-40259000D03*
X226060000Y-37719000D03*
X226060000Y-35179000D03*
X226060000Y-32639000D03*
X226060000Y-30099000D03*
X226060000Y-27559000D03*
X226060000Y-25019000D03*
X226060000Y-22479000D03*
%TD*%
M02*
